PathFileType	4	(X/Y/Z)	C:\Users\86182\Documents\cortex\Trimmed_M3_H14.trc
DataRate	CameraRate	NumFrames	NumMarkers	Units	OrigDataRate	OrigDataStartFrame	OrigNumFrames
100.00	100.00	       169	2	mm	100.00	721	       901
Frame#	Time	gripper			box			
		X1	Y1	Z1	X2	Y2	Z2	

721	7.200	267.75153	173.10529	292.21967	268.05118	170.75902	156.00621	
722	7.210	267.74921	173.10631	292.21387	268.05582	170.75713	156.00299	
723	7.220	267.74655	173.10759	292.20764	268.05969	170.75575	156.00012	
724	7.230	267.74414	173.10896	292.20215	268.06241	170.75502	155.99794	
725	7.240	267.74237	173.11023	292.19824	268.06384	170.75488	155.99658	
726	7.250	267.74139	173.11127	292.19617	268.06390	170.75531	155.99619	
727	7.260	267.74103	173.11203	292.19559	268.06274	170.75615	155.99672	
728	7.270	267.74109	173.11244	292.19617	268.06067	170.75720	155.99802	
729	7.280	267.74152	173.11244	292.19757	268.05817	170.75826	155.99973	
730	7.290	267.74231	173.11205	292.19958	268.05585	170.75906	156.00145	
731	7.300	267.74335	173.11131	292.20187	268.05414	170.75948	156.00282	
732	7.310	267.74435	173.11043	292.20410	268.05307	170.75952	156.00386	
733	7.320	267.74515	173.10956	292.20605	268.05237	170.75931	156.00475	
734	7.330	267.74576	173.10873	292.20779	268.05197	170.75888	156.00549	
735	7.340	267.74619	173.10802	292.20953	268.05203	170.75829	156.00591	
736	7.350	267.74655	173.10745	292.21133	268.05273	170.75752	156.00578	
737	7.360	267.74692	173.10696	292.21329	268.05396	170.75673	156.00516	
738	7.370	267.74765	173.10654	292.21558	268.05539	170.75609	156.00421	
739	7.380	267.74893	173.10623	292.21844	268.05667	170.75572	156.00317	
740	7.390	267.75082	173.10617	292.22186	268.05762	170.75566	156.00227	
741	7.400	267.75314	173.10652	292.22559	268.05804	170.75584	156.00168	
742	7.410	267.75555	173.10728	292.22913	268.05792	170.75621	156.00153	
743	7.420	267.75763	173.10843	292.23181	268.05746	170.75661	156.00169	
744	7.430	267.75906	173.10980	292.23331	268.05673	170.75702	156.00209	
745	7.440	267.75980	173.11121	292.23355	268.05582	170.75752	156.00266	
746	7.450	267.75986	173.11238	292.23279	268.05478	170.75807	156.00323	
747	7.460	267.75940	173.11313	292.23126	268.05405	170.75859	156.00360	
748	7.470	267.75845	173.11343	292.22903	268.05389	170.75890	156.00351	
749	7.480	267.75702	173.11346	292.22610	268.05438	170.75894	156.00296	
750	7.490	267.75522	173.11351	292.22272	268.05539	170.75879	156.00209	
751	7.500	267.75330	173.11378	292.21933	268.05664	170.75850	156.00104	
752	7.510	267.75180	173.11432	292.21677	268.05801	170.75812	155.99997	
753	7.520	267.75137	173.11497	292.21585	268.05914	170.75775	155.99910	
754	7.530	267.75238	173.11557	292.21716	268.05981	170.75748	155.99864	
755	7.540	267.75500	173.11595	292.22095	268.05981	170.75742	155.99870	
756	7.550	267.75894	173.11613	292.22696	268.05902	170.75763	155.99933	
757	7.560	267.76367	173.11615	292.23462	268.05765	170.75807	156.00037	
758	7.570	267.76859	173.11595	292.24292	268.05627	170.75848	156.00143	
759	7.580	267.77292	173.11552	292.25067	268.05545	170.75858	156.00221	
760	7.590	267.77625	173.11479	292.25668	268.05527	170.75822	156.00267	
761	7.600	267.77844	173.11374	292.26025	268.05576	170.75740	156.00279	
762	7.610	267.77951	173.11235	292.26108	268.05704	170.75613	156.00249	
763	7.620	267.77963	173.11079	292.25958	268.05902	170.75458	156.00169	
764	7.630	267.77884	173.10930	292.25650	268.06137	170.75305	156.00052	
765	7.640	267.77707	173.10815	292.25262	268.06375	170.75174	155.99913	
766	7.650	267.77441	173.10760	292.24857	268.06604	170.75072	155.99760	
767	7.660	267.77139	173.10782	292.24472	268.06812	170.74998	155.99609	
768	7.670	267.76859	173.10880	292.24152	268.06973	170.74957	155.99477	
769	7.680	267.76639	173.11037	292.23914	268.07071	170.74956	155.99377	
770	7.690	267.76489	173.11215	292.23749	268.07074	170.75006	155.99338	
771	7.700	267.76379	173.11377	292.23615	268.06964	170.75108	155.99368	
772	7.710	267.76288	173.11501	292.23495	268.06757	170.75255	155.99464	
773	7.720	267.76221	173.11583	292.23441	268.06482	170.75429	155.99608	
774	7.730	267.76208	173.11635	292.23514	268.06183	170.75606	155.99773	
775	7.740	267.76270	173.11676	292.23761	268.05887	170.75768	155.99945	
776	7.750	267.76407	173.11722	292.24164	268.05606	170.75902	156.00121	
777	7.760	267.76581	173.11775	292.24625	268.05359	170.76006	156.00293	
778	7.770	267.76752	173.11827	292.25040	268.05179	170.76067	156.00429	
779	7.780	267.76886	173.11859	292.25327	268.05106	170.76071	156.00497	
780	7.790	267.76965	173.11856	292.25458	268.05176	170.76015	156.00471	
781	7.800	267.77002	173.11815	292.25476	268.05383	170.75902	156.00351	
782	7.810	267.77029	173.11746	292.25449	268.05670	170.75758	156.00172	
783	7.820	267.77066	173.11661	292.25436	268.05951	170.75620	155.99995	
784	7.830	267.77115	173.11571	292.25470	268.06146	170.75517	155.99879	
785	7.840	267.77164	173.11485	292.25534	268.06201	170.75471	155.99858	
786	7.850	267.77182	173.11398	292.25586	268.06104	170.75485	155.99948	
787	7.860	267.77155	173.11316	292.25574	268.05844	170.75565	156.00145	
788	7.870	267.77094	173.11250	292.25485	268.05469	170.75703	156.00418	
789	7.880	267.77008	173.11223	292.25360	268.05063	170.75868	156.00702	
790	7.890	267.76917	173.11240	292.25232	268.04727	170.76021	156.00920	
791	7.900	267.76813	173.11284	292.25110	268.04532	170.76135	156.01028	
792	7.910	267.76691	173.11339	292.24976	268.04489	170.76198	156.01024	
793	7.920	267.76544	173.11391	292.24789	268.04572	170.76215	156.00929	
794	7.930	267.76373	173.11424	292.24509	268.04718	170.76198	156.00792	
795	7.940	267.76172	173.11443	292.24097	268.04877	170.76164	156.00659	
796	7.950	267.75952	173.11455	292.23572	268.05014	170.76125	156.00549	
797	7.960	267.75751	173.11470	292.23010	268.05133	170.76079	156.00465	
798	7.970	267.75595	173.11493	292.22516	268.05225	170.76030	156.00407	
799	7.980	267.75500	173.11520	292.22162	268.05286	170.75984	156.00385	
800	7.990	267.75476	173.11551	292.21997	268.05322	170.75938	156.00380	
801	8.000	267.75525	173.11572	292.22043	268.05383	170.75888	156.00360	
802	8.010	267.75656	173.11568	292.22314	268.05484	170.75830	156.00304	
803	8.020	267.75867	173.11530	292.22791	268.05615	170.75768	156.00218	
804	8.030	267.76144	173.11456	292.23422	268.05737	170.75719	156.00133	
805	8.040	267.76443	173.11354	292.24097	268.05832	170.75688	156.00061	
806	8.050	267.76697	173.11235	292.24670	268.05920	170.75661	155.99991	
807	8.060	267.76846	173.11118	292.25015	268.06036	170.75620	155.99907	
808	8.070	267.76859	173.11018	292.25064	268.06183	170.75562	155.99805	
809	8.080	267.76749	173.10957	292.24829	268.06342	170.75490	155.99699	
810	8.090	267.76559	173.10950	292.24387	268.06500	170.75409	155.99603	
811	8.100	267.76334	173.10999	292.23822	268.06647	170.75322	155.99524	
812	8.110	267.76105	173.11092	292.23230	268.06750	170.75249	155.99477	
813	8.120	267.75882	173.11209	292.22672	268.06760	170.75227	155.99483	
814	8.130	267.75662	173.11333	292.22177	268.06653	170.75281	155.99548	
815	8.140	267.75439	173.11455	292.21759	268.06442	170.75401	155.99666	
816	8.150	267.75232	173.11577	292.21448	268.06174	170.75557	155.99820	
817	8.160	267.75070	173.11699	292.21274	268.05869	170.75717	156.00002	
818	8.170	267.74997	173.11813	292.21274	268.05545	170.75865	156.00215	
819	8.180	267.75021	173.11900	292.21451	268.05215	170.75990	156.00449	
820	8.190	267.75137	173.11951	292.21771	268.04919	170.76079	156.00679	
821	8.200	267.75311	173.11960	292.22174	268.04715	170.76115	156.00861	
822	8.210	267.75525	173.11929	292.22632	268.04669	170.76076	156.00937	
823	8.220	267.75760	173.11871	292.23099	268.04825	170.75952	156.00876	
824	8.230	267.75995	173.11792	292.23529	268.05148	170.75764	156.00694	
825	8.240	267.76202	173.11696	292.23865	268.05551	170.75562	156.00446	
826	8.250	267.76364	173.11583	292.24078	268.05930	170.75395	156.00191	
827	8.260	267.76477	173.11456	292.24182	268.06235	170.75288	155.99968	
828	8.270	267.76526	173.11328	292.24194	268.06470	170.75224	155.99777	
829	8.280	267.76501	173.11211	292.24103	268.06671	170.75179	155.99609	
830	8.290	267.76392	173.11113	292.23898	268.06836	170.75143	155.99467	
831	8.300	267.76208	173.11046	292.23581	268.06927	170.75139	155.99380	
832	8.310	267.75974	173.11020	292.23172	268.06900	170.75183	155.99376	
833	8.320	267.75696	173.11038	292.22681	268.06735	170.75284	155.99463	
834	8.330	267.75391	173.11093	292.22137	268.06439	170.75439	155.99640	
835	8.340	267.75107	173.11179	292.21625	268.06046	170.75633	155.99889	
836	8.350	267.74902	173.11279	292.21268	268.05600	170.75842	156.00177	
837	8.360	267.74808	173.11375	292.21136	268.05161	170.76039	156.00468	
838	8.370	267.74799	173.11450	292.21194	268.04797	170.76198	156.00713	
839	8.380	267.74820	173.11491	292.21320	268.04575	170.76295	156.00861	
840	8.390	267.74817	173.11501	292.21399	268.04529	170.76320	156.00888	
841	8.400	267.74774	173.11481	292.21368	268.04648	170.76276	156.00801	
842	8.410	267.74707	173.11452	292.21246	268.04904	170.76167	156.00626	
843	8.420	267.74649	173.11430	292.21103	268.05249	170.76010	156.00400	
844	8.430	267.74625	173.11427	292.21021	268.05640	170.75815	156.00157	
845	8.440	267.74655	173.11430	292.21051	268.06058	170.75587	155.99910	
846	8.450	267.74759	173.11414	292.21228	268.06503	170.75336	155.99658	
847	8.460	267.74924	173.11365	292.21539	268.06943	170.75085	155.99406	
848	8.470	267.75122	173.11287	292.21948	268.07312	170.74883	155.99193	
849	8.480	267.75342	173.11194	292.22421	268.07532	170.74774	155.99055	
850	8.490	267.75565	173.11098	292.22906	268.07587	170.74763	155.99008	
851	8.500	267.75772	173.11008	292.23346	268.07510	170.74825	155.99039	
852	8.510	267.75943	173.10934	292.23682	268.07330	170.74934	155.99135	
853	8.520	267.76062	173.10887	292.23868	268.07043	170.75093	155.99300	
854	8.530	267.76108	173.10870	292.23874	268.06653	170.75304	155.99532	
855	8.540	267.76068	173.10883	292.23694	268.06177	170.75548	155.99823	
856	8.550	267.75940	173.10918	292.23346	268.05679	170.75792	156.00137	
857	8.560	267.75754	173.10973	292.22888	268.05225	170.76004	156.00430	
858	8.570	267.75534	173.11041	292.22406	268.04892	170.76160	156.00647	
859	8.580	267.75302	173.11115	292.21945	268.04739	170.76237	156.00739	
860	8.590	267.75073	173.11183	292.21509	268.04767	170.76242	156.00708	
861	8.600	267.74860	173.11243	292.21106	268.04907	170.76198	156.00598	
862	8.610	267.74695	173.11288	292.20761	268.05084	170.76132	156.00473	
863	8.620	267.74600	173.11320	292.20526	268.05240	170.76060	156.00369	
864	8.630	267.74588	173.11331	292.20444	268.05371	170.75984	156.00296	
865	8.640	267.74655	173.11314	292.20529	268.05502	170.75894	156.00237	
866	8.650	267.74802	173.11273	292.20789	268.05652	170.75783	156.00169	
867	8.660	267.75003	173.11215	292.21198	268.05835	170.75650	156.00090	
868	8.670	267.75229	173.11157	292.21701	268.06012	170.75520	156.00011	
869	8.680	267.75436	173.11108	292.22217	268.06122	170.75433	155.99965	
870	8.690	267.75592	173.11064	292.22653	268.06131	170.75415	155.99971	
871	8.700	267.75684	173.11011	292.22946	268.06049	170.75465	156.00017	
872	8.710	267.75723	173.10942	292.23077	268.05914	170.75558	156.00078	
873	8.720	267.75732	173.10866	292.23068	268.05768	170.75671	156.00139	
874	8.730	267.75717	173.10796	292.22919	268.05649	170.75778	156.00179	
875	8.740	267.75665	173.10741	292.22635	268.05600	170.75850	156.00171	
876	8.750	267.75558	173.10713	292.22247	268.05637	170.75877	156.00111	
877	8.760	267.75409	173.10710	292.21814	268.05750	170.75858	156.00015	
878	8.770	267.75235	173.10722	292.21390	268.05911	170.75793	155.99898	
879	8.780	267.75061	173.10742	292.21024	268.06107	170.75696	155.99779	
880	8.790	267.74905	173.10767	292.20752	268.06299	170.75574	155.99680	
881	8.800	267.74783	173.10794	292.20581	268.06448	170.75447	155.99625	
882	8.810	267.74698	173.10831	292.20486	268.06528	170.75337	155.99632	
883	8.820	267.74643	173.10881	292.20450	268.06512	170.75262	155.99706	
884	8.830	267.74597	173.10939	292.20428	268.06427	170.75223	155.99823	
885	8.840	267.74533	173.11000	292.20367	268.06323	170.75206	155.99940	
886	8.850	267.74423	173.11060	292.20233	268.06259	170.75197	156.00014	
887	8.860	267.74283	173.11110	292.20032	268.06238	170.75201	156.00031	
888	8.870	267.74149	173.11150	292.19839	268.06235	170.75232	156.00009	
889	8.880	267.74066	173.11172	292.19739	268.06210	170.75293	155.99989	
